ISO-10303-21;
HEADER;
/* Generated by software containing ST-Developer
 * from STEP Tools, Inc. (www.steptools.com) 
 */
/* OPTION: using custom renumber hook */

FILE_DESCRIPTION(
/* description */ ('STEP AP242 Edition 2',
'CAx-IF Rec.Pracs.---Representation and Presentation of Product Manufa
cturing Information (PMI)---4.0---2014-10-13',
'CAx-IF Rec.Pracs.---3D Tessellated Geometry---0.4---2014-09-14','2;1',
'CAx-IF Rec.Pracs.---User Defined Attributes---1.5---2016-08-15'),
/* implementation_level */ '2;1');

FILE_NAME(
/* name */ '1554V parts - Part 7',
/* time_stamp */ '2026-09-25T04:12:24Z',
/* author */ (''),
/* organization */ (''),
/* preprocessor_version */ 'ST-DEVELOPER v20',
/* originating_system */ 'ONSHAPE BY PTC INC, 1.221',
/* authorisation */ '  ');

FILE_SCHEMA (('AP242_MANAGED_MODEL_BASED_3D_ENGINEERING_MIM_LF { 1 0 10303 442 3 1 4 }'));
ENDSEC;

DATA;
#10=SHAPE_REPRESENTATION_RELATIONSHIP('','',#739,#11);
#11=ADVANCED_BREP_SHAPE_REPRESENTATION('',(#737),#1265);
#12=ELLIPSE('',#783,0.0140368838795269,0.0121562980296426);
#13=ELLIPSE('',#786,0.0140368838795269,0.0121562980296426);
#14=ELLIPSE('',#792,0.0140368838795269,0.0121562980296426);
#15=ELLIPSE('',#795,0.014036883879527,0.0121562980296426);
#16=ELLIPSE('',#800,0.00577350269189623,0.005);
#17=ELLIPSE('',#801,0.00577350269189625,0.005);
#18=ELLIPSE('',#803,0.00577350269189629,0.005);
#19=ELLIPSE('',#804,0.00577350269189625,0.005);
#20=B_SPLINE_CURVE_WITH_KNOTS('',3,(#1147,#1148,#1149,#1150,#1151,#1152,
#1153,#1154,#1155,#1156),.UNSPECIFIED.,.F.,.F.,(4,1,1,1,1,1,1,4),(0.,0.00346688447268884,
0.00693376894537767,0.0104006534180665,0.0138675378907553,0.0173344223634442,
0.020801306836133,0.0277350757815107),.UNSPECIFIED.);
#21=B_SPLINE_CURVE_WITH_KNOTS('',3,(#1160,#1161,#1162,#1163,#1164,#1165,
#1166,#1167,#1168,#1169),.UNSPECIFIED.,.F.,.F.,(4,1,1,1,1,1,1,4),(0.,0.00346731439533387,
0.00693462879066775,0.0104019431860016,0.0138692575813355,0.0173365719766694,
0.0208038863720032,0.027738515162671),.UNSPECIFIED.);
#22=LINE('',#1061,#78);
#23=LINE('',#1066,#79);
#24=LINE('',#1068,#80);
#25=LINE('',#1070,#81);
#26=LINE('',#1072,#82);
#27=LINE('',#1074,#83);
#28=LINE('',#1076,#84);
#29=LINE('',#1078,#85);
#30=LINE('',#1083,#86);
#31=LINE('',#1085,#87);
#32=LINE('',#1087,#88);
#33=LINE('',#1089,#89);
#34=LINE('',#1091,#90);
#35=LINE('',#1093,#91);
#36=LINE('',#1095,#92);
#37=LINE('',#1098,#93);
#38=LINE('',#1102,#94);
#39=LINE('',#1104,#95);
#40=LINE('',#1108,#96);
#41=LINE('',#1116,#97);
#42=LINE('',#1120,#98);
#43=LINE('',#1123,#99);
#44=LINE('',#1124,#100);
#45=LINE('',#1126,#101);
#46=LINE('',#1128,#102);
#47=LINE('',#1130,#103);
#48=LINE('',#1132,#104);
#49=LINE('',#1138,#105);
#50=LINE('',#1140,#106);
#51=LINE('',#1141,#107);
#52=LINE('',#1143,#108);
#53=LINE('',#1145,#109);
#54=LINE('',#1175,#110);
#55=LINE('',#1177,#111);
#56=LINE('',#1178,#112);
#57=LINE('',#1180,#113);
#58=LINE('',#1186,#114);
#59=LINE('',#1187,#115);
#60=LINE('',#1189,#116);
#61=LINE('',#1190,#117);
#62=LINE('',#1192,#118);
#63=LINE('',#1194,#119);
#64=LINE('',#1198,#120);
#65=LINE('',#1200,#121);
#66=LINE('',#1202,#122);
#67=LINE('',#1208,#123);
#68=LINE('',#1210,#124);
#69=LINE('',#1212,#125);
#70=LINE('',#1213,#126);
#71=LINE('',#1215,#127);
#72=LINE('',#1221,#128);
#73=LINE('',#1223,#129);
#74=LINE('',#1225,#130);
#75=LINE('',#1229,#131);
#76=LINE('',#1231,#132);
#77=LINE('',#1233,#133);
#78=VECTOR('',#849,1.);
#79=VECTOR('',#852,1.);
#80=VECTOR('',#853,1.);
#81=VECTOR('',#854,1.);
#82=VECTOR('',#855,1.);
#83=VECTOR('',#856,1.);
#84=VECTOR('',#857,1.);
#85=VECTOR('',#860,1.);
#86=VECTOR('',#863,1.);
#87=VECTOR('',#864,1.);
#88=VECTOR('',#865,1.);
#89=VECTOR('',#866,1.);
#90=VECTOR('',#867,1.);
#91=VECTOR('',#868,1.);
#92=VECTOR('',#871,1.);
#93=VECTOR('',#872,1.);
#94=VECTOR('',#875,1.);
#95=VECTOR('',#876,1.);
#96=VECTOR('',#879,1.);
#97=VECTOR('',#886,1.);
#98=VECTOR('',#891,1.);
#99=VECTOR('',#892,1.);
#100=VECTOR('',#893,1.);
#101=VECTOR('',#896,1.);
#102=VECTOR('',#897,1.);
#103=VECTOR('',#898,1.);
#104=VECTOR('',#901,1.);
#105=VECTOR('',#906,1.);
#106=VECTOR('',#907,1.);
#107=VECTOR('',#908,1.);
#108=VECTOR('',#911,1.);
#109=VECTOR('',#914,1.);
#110=VECTOR('',#927,1.);
#111=VECTOR('',#928,1.);
#112=VECTOR('',#929,1.);
#113=VECTOR('',#930,1.);
#114=VECTOR('',#939,1.);
#115=VECTOR('',#940,1.);
#116=VECTOR('',#943,1.);
#117=VECTOR('',#944,1.);
#118=VECTOR('',#945,1.);
#119=VECTOR('',#948,1.);
#120=VECTOR('',#953,1.);
#121=VECTOR('',#954,1.);
#122=VECTOR('',#955,1.);
#123=VECTOR('',#964,1.);
#124=VECTOR('',#967,1.);
#125=VECTOR('',#968,1.);
#126=VECTOR('',#969,1.);
#127=VECTOR('',#972,1.);
#128=VECTOR('',#979,1.);
#129=VECTOR('',#980,1.);
#130=VECTOR('',#981,1.);
#131=VECTOR('',#988,1.);
#132=VECTOR('',#991,1.);
#133=VECTOR('',#994,1.);
#134=PLANE('',#753);
#135=PLANE('',#755);
#136=PLANE('',#757);
#137=PLANE('',#764);
#138=PLANE('',#765);
#139=PLANE('',#766);
#140=PLANE('',#774);
#141=PLANE('',#775);
#142=PLANE('',#780);
#143=PLANE('',#781);
#144=PLANE('',#784);
#145=PLANE('',#788);
#146=PLANE('',#789);
#147=PLANE('',#793);
#148=PLANE('',#796);
#149=PLANE('',#797);
#150=PLANE('',#798);
#151=PLANE('',#799);
#152=PLANE('',#802);
#153=PLANE('',#807);
#154=PLANE('',#810);
#155=PLANE('',#811);
#156=PLANE('',#814);
#157=ORIENTED_EDGE('',*,*,#349,.T.);
#158=ORIENTED_EDGE('',*,*,#350,.F.);
#159=ORIENTED_EDGE('',*,*,#351,.T.);
#160=ORIENTED_EDGE('',*,*,#352,.F.);
#161=ORIENTED_EDGE('',*,*,#353,.F.);
#162=ORIENTED_EDGE('',*,*,#354,.T.);
#163=ORIENTED_EDGE('',*,*,#355,.F.);
#164=ORIENTED_EDGE('',*,*,#356,.T.);
#165=ORIENTED_EDGE('',*,*,#357,.T.);
#166=ORIENTED_EDGE('',*,*,#358,.T.);
#167=ORIENTED_EDGE('',*,*,#359,.F.);
#168=ORIENTED_EDGE('',*,*,#360,.F.);
#169=ORIENTED_EDGE('',*,*,#361,.T.);
#170=ORIENTED_EDGE('',*,*,#362,.F.);
#171=ORIENTED_EDGE('',*,*,#363,.F.);
#172=ORIENTED_EDGE('',*,*,#364,.T.);
#173=ORIENTED_EDGE('',*,*,#365,.T.);
#174=ORIENTED_EDGE('',*,*,#366,.T.);
#175=ORIENTED_EDGE('',*,*,#367,.F.);
#176=ORIENTED_EDGE('',*,*,#368,.F.);
#177=ORIENTED_EDGE('',*,*,#369,.T.);
#178=ORIENTED_EDGE('',*,*,#370,.T.);
#179=ORIENTED_EDGE('',*,*,#371,.T.);
#180=ORIENTED_EDGE('',*,*,#372,.T.);
#181=ORIENTED_EDGE('',*,*,#353,.T.);
#182=ORIENTED_EDGE('',*,*,#355,.T.);
#183=ORIENTED_EDGE('',*,*,#351,.F.);
#184=ORIENTED_EDGE('',*,*,#349,.F.);
#185=ORIENTED_EDGE('',*,*,#373,.F.);
#186=ORIENTED_EDGE('',*,*,#374,.T.);
#187=ORIENTED_EDGE('',*,*,#375,.T.);
#188=ORIENTED_EDGE('',*,*,#376,.F.);
#189=ORIENTED_EDGE('',*,*,#377,.T.);
#190=ORIENTED_EDGE('',*,*,#378,.T.);
#191=ORIENTED_EDGE('',*,*,#379,.T.);
#192=ORIENTED_EDGE('',*,*,#380,.T.);
#193=ORIENTED_EDGE('',*,*,#381,.F.);
#194=ORIENTED_EDGE('',*,*,#382,.F.);
#195=ORIENTED_EDGE('',*,*,#383,.F.);
#196=ORIENTED_EDGE('',*,*,#384,.F.);
#197=ORIENTED_EDGE('',*,*,#385,.F.);
#198=ORIENTED_EDGE('',*,*,#386,.T.);
#199=ORIENTED_EDGE('',*,*,#367,.T.);
#200=ORIENTED_EDGE('',*,*,#387,.T.);
#201=ORIENTED_EDGE('',*,*,#357,.F.);
#202=ORIENTED_EDGE('',*,*,#388,.T.);
#203=ORIENTED_EDGE('',*,*,#389,.T.);
#204=ORIENTED_EDGE('',*,*,#390,.T.);
#205=ORIENTED_EDGE('',*,*,#391,.T.);
#206=ORIENTED_EDGE('',*,*,#392,.T.);
#207=ORIENTED_EDGE('',*,*,#389,.F.);
#208=ORIENTED_EDGE('',*,*,#393,.T.);
#209=ORIENTED_EDGE('',*,*,#394,.T.);
#210=ORIENTED_EDGE('',*,*,#395,.T.);
#211=ORIENTED_EDGE('',*,*,#374,.F.);
#212=ORIENTED_EDGE('',*,*,#396,.T.);
#213=ORIENTED_EDGE('',*,*,#381,.T.);
#214=ORIENTED_EDGE('',*,*,#397,.F.);
#215=ORIENTED_EDGE('',*,*,#370,.F.);
#216=ORIENTED_EDGE('',*,*,#398,.F.);
#217=ORIENTED_EDGE('',*,*,#362,.T.);
#218=ORIENTED_EDGE('',*,*,#399,.T.);
#219=ORIENTED_EDGE('',*,*,#368,.T.);
#220=ORIENTED_EDGE('',*,*,#400,.T.);
#221=ORIENTED_EDGE('',*,*,#401,.T.);
#222=ORIENTED_EDGE('',*,*,#402,.T.);
#223=ORIENTED_EDGE('',*,*,#364,.F.);
#224=ORIENTED_EDGE('',*,*,#403,.F.);
#225=ORIENTED_EDGE('',*,*,#363,.T.);
#226=ORIENTED_EDGE('',*,*,#398,.T.);
#227=ORIENTED_EDGE('',*,*,#369,.F.);
#228=ORIENTED_EDGE('',*,*,#403,.T.);
#229=ORIENTED_EDGE('',*,*,#385,.T.);
#230=ORIENTED_EDGE('',*,*,#404,.T.);
#231=ORIENTED_EDGE('',*,*,#405,.F.);
#232=ORIENTED_EDGE('',*,*,#406,.T.);
#233=ORIENTED_EDGE('',*,*,#376,.T.);
#234=ORIENTED_EDGE('',*,*,#407,.F.);
#235=ORIENTED_EDGE('',*,*,#408,.F.);
#236=ORIENTED_EDGE('',*,*,#409,.T.);
#237=ORIENTED_EDGE('',*,*,#375,.F.);
#238=ORIENTED_EDGE('',*,*,#395,.F.);
#239=ORIENTED_EDGE('',*,*,#410,.T.);
#240=ORIENTED_EDGE('',*,*,#407,.T.);
#241=ORIENTED_EDGE('',*,*,#394,.F.);
#242=ORIENTED_EDGE('',*,*,#411,.T.);
#243=ORIENTED_EDGE('',*,*,#401,.F.);
#244=ORIENTED_EDGE('',*,*,#412,.T.);
#245=ORIENTED_EDGE('',*,*,#408,.T.);
#246=ORIENTED_EDGE('',*,*,#410,.F.);
#247=ORIENTED_EDGE('',*,*,#377,.F.);
#248=ORIENTED_EDGE('',*,*,#406,.F.);
#249=ORIENTED_EDGE('',*,*,#413,.F.);
#250=ORIENTED_EDGE('',*,*,#372,.F.);
#251=ORIENTED_EDGE('',*,*,#414,.T.);
#252=ORIENTED_EDGE('',*,*,#415,.T.);
#253=ORIENTED_EDGE('',*,*,#380,.F.);
#254=ORIENTED_EDGE('',*,*,#416,.F.);
#255=ORIENTED_EDGE('',*,*,#417,.T.);
#256=ORIENTED_EDGE('',*,*,#397,.T.);
#257=ORIENTED_EDGE('',*,*,#379,.F.);
#258=ORIENTED_EDGE('',*,*,#418,.F.);
#259=ORIENTED_EDGE('',*,*,#419,.T.);
#260=ORIENTED_EDGE('',*,*,#420,.T.);
#261=ORIENTED_EDGE('',*,*,#416,.T.);
#262=ORIENTED_EDGE('',*,*,#378,.F.);
#263=ORIENTED_EDGE('',*,*,#415,.F.);
#264=ORIENTED_EDGE('',*,*,#421,.T.);
#265=ORIENTED_EDGE('',*,*,#422,.T.);
#266=ORIENTED_EDGE('',*,*,#418,.T.);
#267=ORIENTED_EDGE('',*,*,#422,.F.);
#268=ORIENTED_EDGE('',*,*,#423,.T.);
#269=ORIENTED_EDGE('',*,*,#419,.F.);
#270=ORIENTED_EDGE('',*,*,#373,.T.);
#271=ORIENTED_EDGE('',*,*,#424,.F.);
#272=ORIENTED_EDGE('',*,*,#425,.T.);
#273=ORIENTED_EDGE('',*,*,#360,.T.);
#274=ORIENTED_EDGE('',*,*,#426,.T.);
#275=ORIENTED_EDGE('',*,*,#396,.F.);
#276=ORIENTED_EDGE('',*,*,#384,.T.);
#277=ORIENTED_EDGE('',*,*,#427,.F.);
#278=ORIENTED_EDGE('',*,*,#428,.F.);
#279=ORIENTED_EDGE('',*,*,#429,.T.);
#280=ORIENTED_EDGE('',*,*,#424,.T.);
#281=ORIENTED_EDGE('',*,*,#383,.T.);
#282=ORIENTED_EDGE('',*,*,#430,.F.);
#283=ORIENTED_EDGE('',*,*,#431,.T.);
#284=ORIENTED_EDGE('',*,*,#432,.F.);
#285=ORIENTED_EDGE('',*,*,#427,.T.);
#286=ORIENTED_EDGE('',*,*,#382,.T.);
#287=ORIENTED_EDGE('',*,*,#399,.F.);
#288=ORIENTED_EDGE('',*,*,#433,.T.);
#289=ORIENTED_EDGE('',*,*,#430,.T.);
#290=ORIENTED_EDGE('',*,*,#432,.T.);
#291=ORIENTED_EDGE('',*,*,#434,.T.);
#292=ORIENTED_EDGE('',*,*,#428,.T.);
#293=ORIENTED_EDGE('',*,*,#359,.T.);
#294=ORIENTED_EDGE('',*,*,#435,.T.);
#295=ORIENTED_EDGE('',*,*,#391,.F.);
#296=ORIENTED_EDGE('',*,*,#426,.F.);
#297=ORIENTED_EDGE('',*,*,#405,.T.);
#298=ORIENTED_EDGE('',*,*,#436,.T.);
#299=ORIENTED_EDGE('',*,*,#365,.F.);
#300=ORIENTED_EDGE('',*,*,#413,.T.);
#301=ORIENTED_EDGE('',*,*,#437,.T.);
#302=ORIENTED_EDGE('',*,*,#438,.T.);
#303=ORIENTED_EDGE('',*,*,#414,.F.);
#304=ORIENTED_EDGE('',*,*,#371,.F.);
#305=ORIENTED_EDGE('',*,*,#417,.F.);
#306=ORIENTED_EDGE('',*,*,#420,.F.);
#307=ORIENTED_EDGE('',*,*,#423,.F.);
#308=ORIENTED_EDGE('',*,*,#421,.F.);
#309=ORIENTED_EDGE('',*,*,#439,.F.);
#310=ORIENTED_EDGE('',*,*,#440,.F.);
#311=ORIENTED_EDGE('',*,*,#429,.F.);
#312=ORIENTED_EDGE('',*,*,#434,.F.);
#313=ORIENTED_EDGE('',*,*,#431,.F.);
#314=ORIENTED_EDGE('',*,*,#433,.F.);
#315=ORIENTED_EDGE('',*,*,#361,.F.);
#316=ORIENTED_EDGE('',*,*,#425,.F.);
#317=ORIENTED_EDGE('',*,*,#441,.T.);
#318=ORIENTED_EDGE('',*,*,#440,.T.);
#319=ORIENTED_EDGE('',*,*,#354,.F.);
#320=ORIENTED_EDGE('',*,*,#441,.F.);
#321=ORIENTED_EDGE('',*,*,#442,.T.);
#322=ORIENTED_EDGE('',*,*,#439,.T.);
#323=ORIENTED_EDGE('',*,*,#356,.F.);
#324=ORIENTED_EDGE('',*,*,#442,.F.);
#325=ORIENTED_EDGE('',*,*,#443,.T.);
#326=ORIENTED_EDGE('',*,*,#352,.T.);
#327=ORIENTED_EDGE('',*,*,#443,.F.);
#328=ORIENTED_EDGE('',*,*,#438,.F.);
#329=ORIENTED_EDGE('',*,*,#444,.T.);
#330=ORIENTED_EDGE('',*,*,#350,.T.);
#331=ORIENTED_EDGE('',*,*,#444,.F.);
#332=ORIENTED_EDGE('',*,*,#437,.F.);
#333=ORIENTED_EDGE('',*,*,#393,.F.);
#334=ORIENTED_EDGE('',*,*,#388,.F.);
#335=ORIENTED_EDGE('',*,*,#402,.F.);
#336=ORIENTED_EDGE('',*,*,#411,.F.);
#337=ORIENTED_EDGE('',*,*,#358,.F.);
#338=ORIENTED_EDGE('',*,*,#390,.F.);
#339=ORIENTED_EDGE('',*,*,#392,.F.);
#340=ORIENTED_EDGE('',*,*,#435,.F.);
#341=ORIENTED_EDGE('',*,*,#409,.F.);
#342=ORIENTED_EDGE('',*,*,#412,.F.);
#343=ORIENTED_EDGE('',*,*,#400,.F.);
#344=ORIENTED_EDGE('',*,*,#386,.F.);
#345=ORIENTED_EDGE('',*,*,#366,.F.);
#346=ORIENTED_EDGE('',*,*,#436,.F.);
#347=ORIENTED_EDGE('',*,*,#404,.F.);
#348=ORIENTED_EDGE('',*,*,#387,.F.);
#349=EDGE_CURVE('',#445,#445,#513,.T.);
#350=EDGE_CURVE('',#446,#446,#514,.F.);
#351=EDGE_CURVE('',#447,#447,#515,.T.);
#352=EDGE_CURVE('',#448,#448,#516,.F.);
#353=EDGE_CURVE('',#449,#449,#517,.T.);
#354=EDGE_CURVE('',#450,#450,#518,.T.);
#355=EDGE_CURVE('',#451,#451,#519,.T.);
#356=EDGE_CURVE('',#452,#452,#520,.T.);
#357=EDGE_CURVE('',#453,#454,#22,.T.);
#358=EDGE_CURVE('',#454,#455,#521,.F.);
#359=EDGE_CURVE('',#456,#455,#23,.T.);
#360=EDGE_CURVE('',#457,#456,#24,.T.);
#361=EDGE_CURVE('',#457,#458,#25,.T.);
#362=EDGE_CURVE('',#459,#458,#26,.T.);
#363=EDGE_CURVE('',#460,#459,#27,.T.);
#364=EDGE_CURVE('',#460,#453,#28,.T.);
#365=EDGE_CURVE('',#461,#462,#29,.T.);
#366=EDGE_CURVE('',#462,#463,#522,.T.);
#367=EDGE_CURVE('',#464,#463,#30,.T.);
#368=EDGE_CURVE('',#465,#464,#31,.T.);
#369=EDGE_CURVE('',#465,#466,#32,.T.);
#370=EDGE_CURVE('',#466,#467,#33,.T.);
#371=EDGE_CURVE('',#467,#468,#34,.T.);
#372=EDGE_CURVE('',#468,#461,#35,.T.);
#373=EDGE_CURVE('',#469,#470,#36,.T.);
#374=EDGE_CURVE('',#469,#471,#37,.T.);
#375=EDGE_CURVE('',#471,#472,#523,.T.);
#376=EDGE_CURVE('',#473,#472,#38,.T.);
#377=EDGE_CURVE('',#473,#474,#39,.T.);
#378=EDGE_CURVE('',#474,#475,#524,.T.);
#379=EDGE_CURVE('',#475,#476,#40,.T.);
#380=EDGE_CURVE('',#476,#477,#525,.T.);
#381=EDGE_CURVE('',#478,#477,#526,.T.);
#382=EDGE_CURVE('',#479,#478,#527,.T.);
#383=EDGE_CURVE('',#480,#479,#41,.T.);
#384=EDGE_CURVE('',#470,#480,#528,.T.);
#385=EDGE_CURVE('',#481,#482,#42,.T.);
#386=EDGE_CURVE('',#481,#464,#43,.T.);
#387=EDGE_CURVE('',#463,#482,#44,.T.);
#388=EDGE_CURVE('',#453,#483,#45,.F.);
#389=EDGE_CURVE('',#483,#484,#46,.T.);
#390=EDGE_CURVE('',#484,#454,#47,.F.);
#391=EDGE_CURVE('',#485,#486,#48,.T.);
#392=EDGE_CURVE('',#486,#484,#529,.T.);
#393=EDGE_CURVE('',#483,#487,#530,.F.);
#394=EDGE_CURVE('',#487,#488,#49,.T.);
#395=EDGE_CURVE('',#488,#471,#50,.T.);
#396=EDGE_CURVE('',#469,#485,#51,.T.);
#397=EDGE_CURVE('',#467,#477,#52,.T.);
#398=EDGE_CURVE('',#459,#466,#531,.T.);
#399=EDGE_CURVE('',#458,#478,#53,.T.);
#400=EDGE_CURVE('',#464,#489,#20,.T.);
#401=EDGE_CURVE('',#489,#490,#532,.T.);
#402=EDGE_CURVE('',#490,#453,#21,.T.);
#403=EDGE_CURVE('',#465,#460,#533,.T.);
#404=EDGE_CURVE('',#482,#491,#534,.F.);
#405=EDGE_CURVE('',#492,#491,#54,.T.);
#406=EDGE_CURVE('',#492,#473,#55,.T.);
#407=EDGE_CURVE('',#493,#472,#56,.T.);
#408=EDGE_CURVE('',#494,#493,#57,.T.);
#409=EDGE_CURVE('',#494,#481,#535,.T.);
#410=EDGE_CURVE('',#488,#493,#536,.T.);
#411=EDGE_CURVE('',#487,#490,#58,.T.);
#412=EDGE_CURVE('',#489,#494,#59,.F.);
#413=EDGE_CURVE('',#461,#492,#60,.T.);
#414=EDGE_CURVE('',#468,#495,#61,.F.);
#415=EDGE_CURVE('',#495,#474,#62,.T.);
#416=EDGE_CURVE('',#496,#476,#63,.T.);
#417=EDGE_CURVE('',#496,#467,#12,.F.);
#418=EDGE_CURVE('',#497,#475,#64,.T.);
#419=EDGE_CURVE('',#497,#498,#65,.T.);
#420=EDGE_CURVE('',#498,#496,#66,.F.);
#421=EDGE_CURVE('',#495,#499,#13,.F.);
#422=EDGE_CURVE('',#499,#497,#537,.T.);
#423=EDGE_CURVE('',#499,#498,#67,.T.);
#424=EDGE_CURVE('',#500,#470,#68,.T.);
#425=EDGE_CURVE('',#500,#457,#69,.T.);
#426=EDGE_CURVE('',#456,#485,#70,.T.);
#427=EDGE_CURVE('',#501,#480,#71,.T.);
#428=EDGE_CURVE('',#502,#501,#538,.T.);
#429=EDGE_CURVE('',#502,#500,#14,.T.);
#430=EDGE_CURVE('',#503,#479,#72,.T.);
#431=EDGE_CURVE('',#503,#504,#73,.T.);
#432=EDGE_CURVE('',#501,#504,#74,.T.);
#433=EDGE_CURVE('',#458,#503,#15,.T.);
#434=EDGE_CURVE('',#504,#502,#75,.T.);
#435=EDGE_CURVE('',#455,#486,#76,.T.);
#436=EDGE_CURVE('',#491,#462,#77,.F.);
#437=EDGE_CURVE('',#505,#505,#16,.F.);
#438=EDGE_CURVE('',#506,#506,#17,.F.);
#439=EDGE_CURVE('',#507,#507,#18,.F.);
#440=EDGE_CURVE('',#508,#508,#19,.F.);
#441=EDGE_CURVE('',#509,#509,#539,.T.);
#442=EDGE_CURVE('',#510,#510,#540,.T.);
#443=EDGE_CURVE('',#511,#511,#541,.T.);
#444=EDGE_CURVE('',#512,#512,#542,.T.);
#445=VERTEX_POINT('',#1042);
#446=VERTEX_POINT('',#1044);
#447=VERTEX_POINT('',#1047);
#448=VERTEX_POINT('',#1049);
#449=VERTEX_POINT('',#1052);
#450=VERTEX_POINT('',#1054);
#451=VERTEX_POINT('',#1057);
#452=VERTEX_POINT('',#1059);
#453=VERTEX_POINT('',#1062);
#454=VERTEX_POINT('',#1063);
#455=VERTEX_POINT('',#1065);
#456=VERTEX_POINT('',#1067);
#457=VERTEX_POINT('',#1069);
#458=VERTEX_POINT('',#1071);
#459=VERTEX_POINT('',#1073);
#460=VERTEX_POINT('',#1075);
#461=VERTEX_POINT('',#1079);
#462=VERTEX_POINT('',#1080);
#463=VERTEX_POINT('',#1082);
#464=VERTEX_POINT('',#1084);
#465=VERTEX_POINT('',#1086);
#466=VERTEX_POINT('',#1088);
#467=VERTEX_POINT('',#1090);
#468=VERTEX_POINT('',#1092);
#469=VERTEX_POINT('',#1096);
#470=VERTEX_POINT('',#1097);
#471=VERTEX_POINT('',#1099);
#472=VERTEX_POINT('',#1101);
#473=VERTEX_POINT('',#1103);
#474=VERTEX_POINT('',#1105);
#475=VERTEX_POINT('',#1107);
#476=VERTEX_POINT('',#1109);
#477=VERTEX_POINT('',#1111);
#478=VERTEX_POINT('',#1113);
#479=VERTEX_POINT('',#1115);
#480=VERTEX_POINT('',#1117);
#481=VERTEX_POINT('',#1121);
#482=VERTEX_POINT('',#1122);
#483=VERTEX_POINT('',#1127);
#484=VERTEX_POINT('',#1129);
#485=VERTEX_POINT('',#1133);
#486=VERTEX_POINT('',#1134);
#487=VERTEX_POINT('',#1137);
#488=VERTEX_POINT('',#1139);
#489=VERTEX_POINT('',#1157);
#490=VERTEX_POINT('',#1159);
#491=VERTEX_POINT('',#1174);
#492=VERTEX_POINT('',#1176);
#493=VERTEX_POINT('',#1179);
#494=VERTEX_POINT('',#1181);
#495=VERTEX_POINT('',#1191);
#496=VERTEX_POINT('',#1195);
#497=VERTEX_POINT('',#1199);
#498=VERTEX_POINT('',#1201);
#499=VERTEX_POINT('',#1205);
#500=VERTEX_POINT('',#1211);
#501=VERTEX_POINT('',#1216);
#502=VERTEX_POINT('',#1218);
#503=VERTEX_POINT('',#1222);
#504=VERTEX_POINT('',#1224);
#505=VERTEX_POINT('',#1236);
#506=VERTEX_POINT('',#1238);
#507=VERTEX_POINT('',#1241);
#508=VERTEX_POINT('',#1243);
#509=VERTEX_POINT('',#1246);
#510=VERTEX_POINT('',#1250);
#511=VERTEX_POINT('',#1254);
#512=VERTEX_POINT('',#1258);
#513=CIRCLE('',#742,0.002);
#514=CIRCLE('',#743,0.002);
#515=CIRCLE('',#745,0.002);
#516=CIRCLE('',#746,0.002);
#517=CIRCLE('',#748,0.002);
#518=CIRCLE('',#749,0.002);
#519=CIRCLE('',#751,0.002);
#520=CIRCLE('',#752,0.002);
#521=CIRCLE('',#754,0.017595);
#522=CIRCLE('',#756,0.017595);
#523=CIRCLE('',#758,0.0225000000000006);
#524=CIRCLE('',#759,0.0121562980296426);
#525=CIRCLE('',#760,0.0121562980296426);
#526=CIRCLE('',#761,0.0275000000000005);
#527=CIRCLE('',#762,0.0121562980296426);
#528=CIRCLE('',#763,0.0121562980296426);
#529=CIRCLE('',#767,0.017595);
#530=CIRCLE('',#768,0.017595);
#531=CIRCLE('',#770,0.0275000000000005);
#532=CIRCLE('',#772,0.0600000000000013);
#533=CIRCLE('',#773,0.0600000000000013);
#534=CIRCLE('',#776,0.017595);
#535=CIRCLE('',#777,0.017595);
#536=CIRCLE('',#779,0.0225000000000006);
#537=CIRCLE('',#787,0.0121562980296426);
#538=CIRCLE('',#791,0.0121562980296426);
#539=CIRCLE('',#806,0.005);
#540=CIRCLE('',#809,0.005);
#541=CIRCLE('',#812,0.005);
#542=CIRCLE('',#815,0.005);
#543=EDGE_LOOP('',(#157));
#544=EDGE_LOOP('',(#158));
#545=EDGE_LOOP('',(#159));
#546=EDGE_LOOP('',(#160));
#547=EDGE_LOOP('',(#161));
#548=EDGE_LOOP('',(#162));
#549=EDGE_LOOP('',(#163));
#550=EDGE_LOOP('',(#164));
#551=EDGE_LOOP('',(#165,#166,#167,#168,#169,#170,#171,#172));
#552=EDGE_LOOP('',(#173,#174,#175,#176,#177,#178,#179,#180));
#553=EDGE_LOOP('',(#181));
#554=EDGE_LOOP('',(#182));
#555=EDGE_LOOP('',(#183));
#556=EDGE_LOOP('',(#184));
#557=EDGE_LOOP('',(#185,#186,#187,#188,#189,#190,#191,#192,#193,#194,#195,
#196));
#558=EDGE_LOOP('',(#197,#198,#199,#200));
#559=EDGE_LOOP('',(#201,#202,#203,#204));
#560=EDGE_LOOP('',(#205,#206,#207,#208,#209,#210,#211,#212));
#561=EDGE_LOOP('',(#213,#214,#215,#216,#217,#218));
#562=EDGE_LOOP('',(#219,#220,#221,#222,#223,#224));
#563=EDGE_LOOP('',(#225,#226,#227,#228));
#564=EDGE_LOOP('',(#229,#230,#231,#232,#233,#234,#235,#236));
#565=EDGE_LOOP('',(#237,#238,#239,#240));
#566=EDGE_LOOP('',(#241,#242,#243,#244,#245,#246));
#567=EDGE_LOOP('',(#247,#248,#249,#250,#251,#252));
#568=EDGE_LOOP('',(#253,#254,#255,#256));
#569=EDGE_LOOP('',(#257,#258,#259,#260,#261));
#570=EDGE_LOOP('',(#262,#263,#264,#265,#266));
#571=EDGE_LOOP('',(#267,#268,#269));
#572=EDGE_LOOP('',(#270,#271,#272,#273,#274,#275));
#573=EDGE_LOOP('',(#276,#277,#278,#279,#280));
#574=EDGE_LOOP('',(#281,#282,#283,#284,#285));
#575=EDGE_LOOP('',(#286,#287,#288,#289));
#576=EDGE_LOOP('',(#290,#291,#292));
#577=EDGE_LOOP('',(#293,#294,#295,#296));
#578=EDGE_LOOP('',(#297,#298,#299,#300));
#579=EDGE_LOOP('',(#301));
#580=EDGE_LOOP('',(#302));
#581=EDGE_LOOP('',(#303,#304,#305,#306,#307,#308));
#582=EDGE_LOOP('',(#309));
#583=EDGE_LOOP('',(#310));
#584=EDGE_LOOP('',(#311,#312,#313,#314,#315,#316));
#585=EDGE_LOOP('',(#317));
#586=EDGE_LOOP('',(#318));
#587=EDGE_LOOP('',(#319));
#588=EDGE_LOOP('',(#320));
#589=EDGE_LOOP('',(#321));
#590=EDGE_LOOP('',(#322));
#591=EDGE_LOOP('',(#323));
#592=EDGE_LOOP('',(#324));
#593=EDGE_LOOP('',(#325));
#594=EDGE_LOOP('',(#326));
#595=EDGE_LOOP('',(#327));
#596=EDGE_LOOP('',(#328));
#597=EDGE_LOOP('',(#329));
#598=EDGE_LOOP('',(#330));
#599=EDGE_LOOP('',(#331));
#600=EDGE_LOOP('',(#332));
#601=EDGE_LOOP('',(#333,#334,#335,#336));
#602=EDGE_LOOP('',(#337,#338,#339,#340));
#603=EDGE_LOOP('',(#341,#342,#343,#344));
#604=EDGE_LOOP('',(#345,#346,#347,#348));
#605=FACE_BOUND('',#543,.T.);
#606=FACE_BOUND('',#544,.T.);
#607=FACE_BOUND('',#545,.T.);
#608=FACE_BOUND('',#546,.T.);
#609=FACE_BOUND('',#547,.T.);
#610=FACE_BOUND('',#548,.T.);
#611=FACE_BOUND('',#549,.T.);
#612=FACE_BOUND('',#550,.T.);
#613=FACE_BOUND('',#551,.T.);
#614=FACE_BOUND('',#552,.T.);
#615=FACE_BOUND('',#553,.T.);
#616=FACE_BOUND('',#554,.T.);
#617=FACE_BOUND('',#555,.T.);
#618=FACE_BOUND('',#556,.T.);
#619=FACE_BOUND('',#557,.T.);
#620=FACE_BOUND('',#558,.T.);
#621=FACE_BOUND('',#559,.T.);
#622=FACE_BOUND('',#560,.T.);
#623=FACE_BOUND('',#561,.T.);
#624=FACE_BOUND('',#562,.T.);
#625=FACE_BOUND('',#563,.T.);
#626=FACE_BOUND('',#564,.T.);
#627=FACE_BOUND('',#565,.T.);
#628=FACE_BOUND('',#566,.T.);
#629=FACE_BOUND('',#567,.T.);
#630=FACE_BOUND('',#568,.T.);
#631=FACE_BOUND('',#569,.T.);
#632=FACE_BOUND('',#570,.T.);
#633=FACE_BOUND('',#571,.T.);
#634=FACE_BOUND('',#572,.T.);
#635=FACE_BOUND('',#573,.T.);
#636=FACE_BOUND('',#574,.T.);
#637=FACE_BOUND('',#575,.T.);
#638=FACE_BOUND('',#576,.T.);
#639=FACE_BOUND('',#577,.T.);
#640=FACE_BOUND('',#578,.T.);
#641=FACE_BOUND('',#579,.T.);
#642=FACE_BOUND('',#580,.T.);
#643=FACE_BOUND('',#581,.T.);
#644=FACE_BOUND('',#582,.T.);
#645=FACE_BOUND('',#583,.T.);
#646=FACE_BOUND('',#584,.T.);
#647=FACE_BOUND('',#585,.T.);
#648=FACE_BOUND('',#586,.T.);
#649=FACE_BOUND('',#587,.T.);
#650=FACE_BOUND('',#588,.T.);
#651=FACE_BOUND('',#589,.T.);
#652=FACE_BOUND('',#590,.T.);
#653=FACE_BOUND('',#591,.T.);
#654=FACE_BOUND('',#592,.T.);
#655=FACE_BOUND('',#593,.T.);
#656=FACE_BOUND('',#594,.T.);
#657=FACE_BOUND('',#595,.T.);
#658=FACE_BOUND('',#596,.T.);
#659=FACE_BOUND('',#597,.T.);
#660=FACE_BOUND('',#598,.T.);
#661=FACE_BOUND('',#599,.T.);
#662=FACE_BOUND('',#600,.T.);
#663=FACE_BOUND('',#601,.T.);
#664=FACE_BOUND('',#602,.T.);
#665=FACE_BOUND('',#603,.T.);
#666=FACE_BOUND('',#604,.T.);
#667=CYLINDRICAL_SURFACE('',#741,0.002);
#668=CYLINDRICAL_SURFACE('',#744,0.002);
#669=CYLINDRICAL_SURFACE('',#747,0.002);
#670=CYLINDRICAL_SURFACE('',#750,0.002);
#671=CYLINDRICAL_SURFACE('',#769,0.0275000000000005);
#672=CYLINDRICAL_SURFACE('',#771,0.0600000000000013);
#673=CYLINDRICAL_SURFACE('',#778,0.0225000000000006);
#674=CYLINDRICAL_SURFACE('',#782,0.0121562980296426);
#675=CYLINDRICAL_SURFACE('',#785,0.0121562980296426);
#676=CYLINDRICAL_SURFACE('',#790,0.0121562980296426);
#677=CYLINDRICAL_SURFACE('',#794,0.0121562980296426);
#678=CYLINDRICAL_SURFACE('',#805,0.005);
#679=CYLINDRICAL_SURFACE('',#808,0.005);
#680=CYLINDRICAL_SURFACE('',#813,0.005);
#681=CYLINDRICAL_SURFACE('',#816,0.005);
#682=CYLINDRICAL_SURFACE('',#817,0.017595);
#683=CYLINDRICAL_SURFACE('',#818,0.017595);
#684=CYLINDRICAL_SURFACE('',#819,0.017595);
#685=CYLINDRICAL_SURFACE('',#820,0.017595);
#686=ADVANCED_FACE('',(#605,#606),#667,.F.);
#687=ADVANCED_FACE('',(#607,#608),#668,.F.);
#688=ADVANCED_FACE('',(#609,#610),#669,.F.);
#689=ADVANCED_FACE('',(#611,#612),#670,.F.);
#690=ADVANCED_FACE('',(#613),#134,.F.);
#691=ADVANCED_FACE('',(#614),#135,.T.);
#692=ADVANCED_FACE('',(#615,#616,#617,#618,#619),#136,.F.);
#693=ADVANCED_FACE('',(#620),#137,.T.);
#694=ADVANCED_FACE('',(#621),#138,.F.);
#695=ADVANCED_FACE('',(#622),#139,.T.);
#696=ADVANCED_FACE('',(#623),#671,.T.);
#697=ADVANCED_FACE('',(#624),#672,.T.);
#698=ADVANCED_FACE('',(#625),#140,.T.);
#699=ADVANCED_FACE('',(#626),#141,.F.);
#700=ADVANCED_FACE('',(#627),#673,.F.);
#701=ADVANCED_FACE('',(#628),#142,.F.);
#702=ADVANCED_FACE('',(#629),#143,.T.);
#703=ADVANCED_FACE('',(#630),#674,.T.);
#704=ADVANCED_FACE('',(#631),#144,.T.);
#705=ADVANCED_FACE('',(#632),#675,.T.);
#706=ADVANCED_FACE('',(#633),#145,.T.);
#707=ADVANCED_FACE('',(#634),#146,.F.);
#708=ADVANCED_FACE('',(#635),#676,.T.);
#709=ADVANCED_FACE('',(#636),#147,.F.);
#710=ADVANCED_FACE('',(#637),#677,.T.);
#711=ADVANCED_FACE('',(#638),#148,.T.);
#712=ADVANCED_FACE('',(#639),#149,.T.);
#713=ADVANCED_FACE('',(#640),#150,.T.);
#714=ADVANCED_FACE('',(#641,#642,#643),#151,.T.);
#715=ADVANCED_FACE('',(#644,#645,#646),#152,.F.);
#716=ADVANCED_FACE('',(#647,#648),#678,.F.);
#717=ADVANCED_FACE('',(#649,#650),#153,.T.);
#718=ADVANCED_FACE('',(#651,#652),#679,.F.);
#719=ADVANCED_FACE('',(#653,#654),#154,.T.);
#720=ADVANCED_FACE('',(#655,#656),#155,.T.);
#721=ADVANCED_FACE('',(#657,#658),#680,.F.);
#722=ADVANCED_FACE('',(#659,#660),#156,.T.);
#723=ADVANCED_FACE('',(#661,#662),#681,.F.);
#724=ADVANCED_FACE('',(#663),#682,.F.);
#725=ADVANCED_FACE('',(#664),#683,.T.);
#726=ADVANCED_FACE('',(#665),#684,.F.);
#727=ADVANCED_FACE('',(#666),#685,.T.);
#728=CLOSED_SHELL('',(#686,#687,#688,#689,#690,#691,#692,#693,#694,#695,
#696,#697,#698,#699,#700,#701,#702,#703,#704,#705,#706,#707,#708,#709,#710,
#711,#712,#713,#714,#715,#716,#717,#718,#719,#720,#721,#722,#723,#724,#725,
#726,#727));
#729=STYLED_ITEM('',(#730),#737);
#730=PRESENTATION_STYLE_ASSIGNMENT((#731));
#731=SURFACE_STYLE_USAGE(.BOTH.,#732);
#732=SURFACE_SIDE_STYLE('',(#733));
#733=SURFACE_STYLE_FILL_AREA(#734);
#734=FILL_AREA_STYLE('',(#735));
#735=FILL_AREA_STYLE_COLOUR('',#736);
#736=COLOUR_RGB('',0.498039215686275,0.498039215686275,0.498039215686275);
#737=MANIFOLD_SOLID_BREP('Part 7',#728);
#738=SHAPE_DEFINITION_REPRESENTATION(#1270,#739);
#739=SHAPE_REPRESENTATION('Part 7',(#740),#1265);
#740=AXIS2_PLACEMENT_3D('',#1039,#821,#822);
#741=AXIS2_PLACEMENT_3D('',#1040,#823,#824);
#742=AXIS2_PLACEMENT_3D('',#1041,#825,#826);
#743=AXIS2_PLACEMENT_3D('',#1043,#827,#828);
#744=AXIS2_PLACEMENT_3D('',#1045,#829,#830);
#745=AXIS2_PLACEMENT_3D('',#1046,#831,#832);
#746=AXIS2_PLACEMENT_3D('',#1048,#833,#834);
#747=AXIS2_PLACEMENT_3D('',#1050,#835,#836);
#748=AXIS2_PLACEMENT_3D('',#1051,#837,#838);
#749=AXIS2_PLACEMENT_3D('',#1053,#839,#840);
#750=AXIS2_PLACEMENT_3D('',#1055,#841,#842);
#751=AXIS2_PLACEMENT_3D('',#1056,#843,#844);
#752=AXIS2_PLACEMENT_3D('',#1058,#845,#846);
#753=AXIS2_PLACEMENT_3D('',#1060,#847,#848);
#754=AXIS2_PLACEMENT_3D('',#1064,#850,#851);
#755=AXIS2_PLACEMENT_3D('',#1077,#858,#859);
#756=AXIS2_PLACEMENT_3D('',#1081,#861,#862);
#757=AXIS2_PLACEMENT_3D('',#1094,#869,#870);
#758=AXIS2_PLACEMENT_3D('',#1100,#873,#874);
#759=AXIS2_PLACEMENT_3D('',#1106,#877,#878);
#760=AXIS2_PLACEMENT_3D('',#1110,#880,#881);
#761=AXIS2_PLACEMENT_3D('',#1112,#882,#883);
#762=AXIS2_PLACEMENT_3D('',#1114,#884,#885);
#763=AXIS2_PLACEMENT_3D('',#1118,#887,#888);
#764=AXIS2_PLACEMENT_3D('',#1119,#889,#890);
#765=AXIS2_PLACEMENT_3D('',#1125,#894,#895);
#766=AXIS2_PLACEMENT_3D('',#1131,#899,#900);
#767=AXIS2_PLACEMENT_3D('',#1135,#902,#903);
#768=AXIS2_PLACEMENT_3D('',#1136,#904,#905);
#769=AXIS2_PLACEMENT_3D('',#1142,#909,#910);
#770=AXIS2_PLACEMENT_3D('',#1144,#912,#913);
#771=AXIS2_PLACEMENT_3D('',#1146,#915,#916);
#772=AXIS2_PLACEMENT_3D('',#1158,#917,#918);
#773=AXIS2_PLACEMENT_3D('',#1170,#919,#920);
#774=AXIS2_PLACEMENT_3D('',#1171,#921,#922);
#775=AXIS2_PLACEMENT_3D('',#1172,#923,#924);
#776=AXIS2_PLACEMENT_3D('',#1173,#925,#926);
#777=AXIS2_PLACEMENT_3D('',#1182,#931,#932);
#778=AXIS2_PLACEMENT_3D('',#1183,#933,#934);
#779=AXIS2_PLACEMENT_3D('',#1184,#935,#936);
#780=AXIS2_PLACEMENT_3D('',#1185,#937,#938);
#781=AXIS2_PLACEMENT_3D('',#1188,#941,#942);
#782=AXIS2_PLACEMENT_3D('',#1193,#946,#947);
#783=AXIS2_PLACEMENT_3D('',#1196,#949,#950);
#784=AXIS2_PLACEMENT_3D('',#1197,#951,#952);
#785=AXIS2_PLACEMENT_3D('',#1203,#956,#957);
#786=AXIS2_PLACEMENT_3D('',#1204,#958,#959);
#787=AXIS2_PLACEMENT_3D('',#1206,#960,#961);
#788=AXIS2_PLACEMENT_3D('',#1207,#962,#963);
#789=AXIS2_PLACEMENT_3D('',#1209,#965,#966);
#790=AXIS2_PLACEMENT_3D('',#1214,#970,#971);
#791=AXIS2_PLACEMENT_3D('',#1217,#973,#974);
#792=AXIS2_PLACEMENT_3D('',#1219,#975,#976);
#793=AXIS2_PLACEMENT_3D('',#1220,#977,#978);
#794=AXIS2_PLACEMENT_3D('',#1226,#982,#983);
#795=AXIS2_PLACEMENT_3D('',#1227,#984,#985);
#796=AXIS2_PLACEMENT_3D('',#1228,#986,#987);
#797=AXIS2_PLACEMENT_3D('',#1230,#989,#990);
#798=AXIS2_PLACEMENT_3D('',#1232,#992,#993);
#799=AXIS2_PLACEMENT_3D('',#1234,#995,#996);
#800=AXIS2_PLACEMENT_3D('',#1235,#997,#998);
#801=AXIS2_PLACEMENT_3D('',#1237,#999,#1000);
#802=AXIS2_PLACEMENT_3D('',#1239,#1001,#1002);
#803=AXIS2_PLACEMENT_3D('',#1240,#1003,#1004);
#804=AXIS2_PLACEMENT_3D('',#1242,#1005,#1006);
#805=AXIS2_PLACEMENT_3D('',#1244,#1007,#1008);
#806=AXIS2_PLACEMENT_3D('',#1245,#1009,#1010);
#807=AXIS2_PLACEMENT_3D('',#1247,#1011,#1012);
#808=AXIS2_PLACEMENT_3D('',#1248,#1013,#1014);
#809=AXIS2_PLACEMENT_3D('',#1249,#1015,#1016);
#810=AXIS2_PLACEMENT_3D('',#1251,#1017,#1018);
#811=AXIS2_PLACEMENT_3D('',#1252,#1019,#1020);
#812=AXIS2_PLACEMENT_3D('',#1253,#1021,#1022);
#813=AXIS2_PLACEMENT_3D('',#1255,#1023,#1024);
#814=AXIS2_PLACEMENT_3D('',#1256,#1025,#1026);
#815=AXIS2_PLACEMENT_3D('',#1257,#1027,#1028);
#816=AXIS2_PLACEMENT_3D('',#1259,#1029,#1030);
#817=AXIS2_PLACEMENT_3D('',#1260,#1031,#1032);
#818=AXIS2_PLACEMENT_3D('',#1261,#1033,#1034);
#819=AXIS2_PLACEMENT_3D('',#1262,#1035,#1036);
#820=AXIS2_PLACEMENT_3D('',#1263,#1037,#1038);
#821=DIRECTION('',(0.,0.,1.));
#822=DIRECTION('',(1.,0.,0.));
#823=DIRECTION('',(-0.999999996584711,-3.56372645838113E-13,8.26473122740531E-5));
#824=DIRECTION('',(8.26473122740531E-5,0.,0.999999996584711));
#825=DIRECTION('',(-0.999999996584711,-3.56372645838113E-13,8.26473122740531E-5));
#826=DIRECTION('',(-8.26473122740531E-5,0.,-0.999999996584711));
#827=DIRECTION('',(0.999999996584711,3.56372645838113E-13,-8.26473122740531E-5));
#828=DIRECTION('',(-8.26473122740531E-5,0.,-0.999999996584711));
#829=DIRECTION('',(-0.999999996584711,-3.56372645838113E-13,8.26473122740531E-5));
#830=DIRECTION('',(8.26473122740531E-5,0.,0.999999996584711));
#831=DIRECTION('',(-0.999999996584711,-3.56372645838113E-13,8.26473122740531E-5));
#832=DIRECTION('',(-8.26473122740531E-5,0.,-0.999999996584711));
#833=DIRECTION('',(0.999999996584711,3.56372645838113E-13,-8.26473122740531E-5));
#834=DIRECTION('',(-8.26473122740531E-5,0.,-0.999999996584711));
#835=DIRECTION('',(-0.999999996584711,-3.56372645838113E-13,8.26473122740531E-5));
#836=DIRECTION('',(8.26473122740531E-5,0.,0.999999996584711));
#837=DIRECTION('',(0.999999996584711,3.56372645838113E-13,-8.26473122740531E-5));
#838=DIRECTION('',(-8.26473122740531E-5,0.,-0.999999996584711));
#839=DIRECTION('',(0.999999996584711,3.56372645838113E-13,-8.26473122740531E-5));
#840=DIRECTION('',(-8.26473122740531E-5,0.,-0.999999996584711));
#841=DIRECTION('',(-0.999999996584711,-3.56372645838113E-13,8.26473122740531E-5));
#842=DIRECTION('',(8.26473122740531E-5,0.,0.999999996584711));
#843=DIRECTION('',(0.999999996584711,3.56372645838113E-13,-8.26473122740531E-5));
#844=DIRECTION('',(-8.26473122740531E-5,0.,-0.999999996584711));
#845=DIRECTION('',(0.999999996584711,3.56372645838113E-13,-8.26473122740531E-5));
#846=DIRECTION('',(-8.26473122740531E-5,0.,-0.999999996584711));
#847=DIRECTION('',(-1.46660345474932E-5,0.984129231318577,-0.177453249756702));
#848=DIRECTION('',(0.,0.177453249775786,0.984129231424416));
#849=DIRECTION('',(-0.999999996584711,-3.56372645838113E-13,8.26473122740531E-5));
#850=DIRECTION('',(-1.46660345474932E-5,0.984129231318577,-0.177453249756702));
#851=DIRECTION('',(0.,0.177453249775786,0.984129231424416));
#852=DIRECTION('',(8.13356358355708E-5,0.177453250362756,0.984129227957491));
#853=DIRECTION('',(-0.999999996584711,-3.56372645838113E-13,8.26473122740531E-5));
#854=DIRECTION('',(-8.13356358355707E-5,-0.177453250362756,-0.984129227957491));
#855=DIRECTION('',(-0.999999996584711,-3.56372645838113E-13,8.26473122740531E-5));
#856=DIRECTION('',(-8.13356358355707E-5,-0.177453250362756,-0.984129227957491));
#857=DIRECTION('',(-0.999999996584711,-3.56372645838113E-13,8.26473122740531E-5));
#858=DIRECTION('',(-5.12866182928698E-5,0.784168524397943,-0.620547921367266));
#859=DIRECTION('',(0.,0.620547922183385,0.784168525429249));
#860=DIRECTION('',(6.48094206902539E-5,0.620547923486617,0.784168521719781));
#861=DIRECTION('',(-5.12866182928698E-5,0.784168524397943,-0.620547921367266));
#862=DIRECTION('',(0.,0.620547922183385,0.784168525429249));
#863=DIRECTION('',(-0.999999996584711,-3.56372645838113E-13,8.26473122740531E-5));
#864=DIRECTION('',(-0.999999996584711,-3.56372645838113E-13,8.26473122740531E-5));
#865=DIRECTION('',(-6.48094206902539E-5,-0.620547923486617,-0.784168521719781));
#866=DIRECTION('',(-0.999999996584711,-3.56372645838113E-13,8.26473122740531E-5));
#867=DIRECTION('',(6.48094206902539E-5,0.620547923486617,0.784168521719781));
#868=DIRECTION('',(-0.999999996584711,-3.56372645838113E-13,8.26473122740531E-5));
#869=DIRECTION('',(0.999999996584711,3.56372645838113E-13,-8.26473122740531E-5));
#870=DIRECTION('',(-3.56372644620997E-13,1.,2.94532413465131E-17));
#871=DIRECTION('',(3.56372647038053E-13,-1.,-2.07819655509806E-19));
#872=DIRECTION('',(-8.13356358355707E-5,-0.177453250362757,-0.984129227957491));
#873=DIRECTION('',(0.999999996584711,3.56372645838113E-13,-8.26473122740531E-5));
#874=DIRECTION('',(-8.26473122740531E-5,0.,-0.999999996584711));
#875=DIRECTION('',(-6.48094206902539E-5,-0.620547923486617,-0.784168521719781));
#876=DIRECTION('',(-6.19733025931041E-5,0.661604921111411,-0.749852601862842));
#877=DIRECTION('',(-0.999999996584711,-3.56372645838113E-13,8.26473122740531E-5));
#878=DIRECTION('',(-8.26473122740531E-5,0.,-0.999999996584711));
#879=DIRECTION('',(-5.46798682499181E-5,-0.749852604423805,-0.661604918851839));
#880=DIRECTION('',(-0.999999996584711,-3.56372645838113E-13,8.26473122740531E-5));
#881=DIRECTION('',(-8.26473122740531E-5,0.,-0.999999996584711));
#882=DIRECTION('',(0.999999996584711,3.56372645838113E-13,-8.26473122740531E-5));
#883=DIRECTION('',(-8.26473122740531E-5,0.,-0.999999996584711));
#884=DIRECTION('',(0.999999996584711,3.56372645838113E-13,-8.26473122740531E-5));
#885=DIRECTION('',(-8.26473122740531E-5,0.,-0.999999996584711));
#886=DIRECTION('',(-8.26473122740531E-5,1.91485096680023E-28,-0.999999996584711));
#887=DIRECTION('',(0.999999996584711,3.56372645838113E-13,-8.26473122740531E-5));
#888=DIRECTION('',(-8.26473122740531E-5,0.,-0.999999996584711));
#889=DIRECTION('',(6.48094206902535E-5,0.620547923486623,0.784168521719777));
#890=DIRECTION('',(0.,-0.784168523366633,0.620547924789854));
#891=DIRECTION('',(-0.999999996584711,-3.56372645838113E-13,8.26473122740531E-5));
#892=DIRECTION('',(-5.12866182928703E-5,0.784168524397939,-0.620547921367272));
#893=DIRECTION('',(5.12866182928703E-5,-0.784168524397939,0.620547921367272));
#894=DIRECTION('',(-8.13356358355709E-5,-0.177453250362744,-0.984129227957493));
#895=DIRECTION('',(0.,0.98412923121274,-0.177453250949713));
#896=DIRECTION('',(1.46660345474921E-5,-0.984129231318579,0.177453249756689));
#897=DIRECTION('',(-0.999999996584711,-3.56372645838113E-13,8.26473122740531E-5));
#898=DIRECTION('',(-1.46660345474921E-5,0.984129231318579,-0.177453249756689));
#899=DIRECTION('',(-1.46660345474932E-5,0.984129231318577,-0.177453249756703));
#900=DIRECTION('',(0.,0.177453249775787,0.984129231424416));
#901=DIRECTION('',(8.13356358355707E-5,0.177453250362757,0.984129227957491));
#902=DIRECTION('',(-1.46660345474932E-5,0.984129231318577,-0.177453249756703));
#903=DIRECTION('',(0.,0.177453249775787,0.984129231424416));
#904=DIRECTION('',(-1.46660345474932E-5,0.984129231318577,-0.177453249756703));
#905=DIRECTION('',(0.,0.177453249775787,0.984129231424416));
#906=DIRECTION('',(-8.13356358355707E-5,-0.177453250362757,-0.984129227957491));
#907=DIRECTION('',(-0.999999996584711,-3.56372645838113E-13,8.26473122740531E-5));
#908=DIRECTION('',(0.999999996584711,3.56372645688684E-13,-8.26473122740531E-5));
#909=DIRECTION('',(-0.999999996584711,-3.56372645838113E-13,8.26473122740531E-5));
#910=DIRECTION('',(8.26473122740531E-5,0.,0.999999996584711));
#911=DIRECTION('',(-0.999999996584711,-3.56372645838113E-13,8.26473122740531E-5));
#912=DIRECTION('',(0.999999996584711,3.56372645838113E-13,-8.26473122740531E-5));
#913=DIRECTION('',(-8.26473122740531E-5,0.,-0.999999996584711));
#914=DIRECTION('',(-0.999999996584711,-3.56372645838113E-13,8.26473122740531E-5));
#915=DIRECTION('',(-0.999999996584711,-3.56372645838113E-13,8.26473122740531E-5));
#916=DIRECTION('',(8.26473122740531E-5,0.,0.999999996584711));
#917=DIRECTION('',(0.999999996584711,3.56372645838113E-13,-8.26473122740531E-5));
#918=DIRECTION('',(-8.26473122740531E-5,0.,-0.999999996584711));
#919=DIRECTION('',(0.999999996584711,3.56372645838113E-13,-8.26473122740531E-5));
#920=DIRECTION('',(-8.26473122740531E-5,0.,-0.999999996584711));
#921=DIRECTION('',(0.999999996584711,3.56372645838113E-13,-8.26473122740531E-5));
#922=DIRECTION('',(-3.56372644620997E-13,1.,2.94532413465131E-17));
#923=DIRECTION('',(-5.12866182928698E-5,0.784168524397943,-0.620547921367266));
#924=DIRECTION('',(0.,0.620547922183385,0.784168525429249));
#925=DIRECTION('',(-5.12866182928698E-5,0.784168524397943,-0.620547921367266));
#926=DIRECTION('',(0.,0.620547922183385,0.784168525429249));
#927=DIRECTION('',(6.48094206902539E-5,0.620547923486617,0.784168521719781));
#928=DIRECTION('',(-0.999999996584711,-3.56372637109076E-13,8.26473122740531E-5));
#929=DIRECTION('',(-0.999999996584711,-3.56372645838113E-13,8.26473122740531E-5));
#930=DIRECTION('',(-6.48094206902539E-5,-0.620547923486617,-0.784168521719781));
#931=DIRECTION('',(-5.12866182928698E-5,0.784168524397943,-0.620547921367266));
#932=DIRECTION('',(0.,0.620547922183385,0.784168525429249));
#933=DIRECTION('',(-0.999999996584711,-3.56372645838113E-13,8.26473122740531E-5));
#934=DIRECTION('',(8.26473122740531E-5,0.,0.999999996584711));
#935=DIRECTION('',(0.999999996584711,3.56372645838113E-13,-8.26473122740531E-5));
#936=DIRECTION('',(-8.26473122740531E-5,0.,-0.999999996584711));
#937=DIRECTION('',(0.999999996584711,3.56372645838113E-13,-8.26473122740531E-5));
#938=DIRECTION('',(-3.56372644620997E-13,1.,2.94532413465131E-17));
#939=DIRECTION('',(1.46660345474921E-5,-0.984129231318579,0.177453249756689));
#940=DIRECTION('',(-5.12866182928703E-5,0.784168524397939,-0.620547921367272));
#941=DIRECTION('',(5.4679868249918E-5,0.749852604423805,0.661604918851839));
#942=DIRECTION('',(0.,-0.661604919840901,0.749852605544793));
#943=DIRECTION('',(6.19733025931044E-5,-0.661604921111407,0.749852601862845));
#944=DIRECTION('',(0.494066876543593,-0.575235388415477,0.651921904384991));
#945=DIRECTION('',(-0.999999996584711,-3.56372645838113E-13,8.26473122740531E-5));
#946=DIRECTION('',(-0.999999996584711,-3.56372645838113E-13,8.26473122740531E-5));
#947=DIRECTION('',(8.26473122740531E-5,0.,0.999999996584711));
#948=DIRECTION('',(-0.999999996584711,-3.56372645838113E-13,8.26473122740531E-5));
#949=DIRECTION('',(0.865999757517565,0.39208426219928,-0.310345535355617));
#950=DIRECTION('',(-0.500044413806671,0.679109862976598,-0.537368940513544));
#951=DIRECTION('',(-6.19733025931041E-5,0.661604921111411,-0.749852601862842));
#952=DIRECTION('',(0.,0.749852603302817,0.661604922381921));
#953=DIRECTION('',(-0.999999996584711,-3.56372645838113E-13,8.26473122740531E-5));
#954=DIRECTION('',(-5.46798682499181E-5,-0.749852604423805,-0.661604918851839));
#955=DIRECTION('',(-0.101864782739118,0.745947883817527,0.658168155311138));
#956=DIRECTION('',(-0.999999996584711,-3.56372645838113E-13,8.26473122740531E-5));
#957=DIRECTION('',(8.26473122740531E-5,0.,0.999999996584711));
#958=DIRECTION('',(0.865999757517565,0.39208426219928,-0.310345535355617));
#959=DIRECTION('',(-0.500044413806671,0.679109862976598,-0.537368940513544));
#960=DIRECTION('',(-0.999999996584711,-3.56372645838113E-13,8.26473122740531E-5));
#961=DIRECTION('',(-8.26473122740531E-5,0.,-0.999999996584711));
#962=DIRECTION('',(0.999999996584711,3.56372645838113E-13,-8.26473122740531E-5));
#963=DIRECTION('',(-3.56372644620997E-13,1.,2.94532413465131E-17));
#964=DIRECTION('',(-6.48094206902539E-5,-0.620547923486617,-0.784168521719781));
#965=DIRECTION('',(-8.26473122740531E-5,-2.92454217908848E-17,-0.999999996584711));
#966=DIRECTION('',(-0.999999996584711,0.,8.26473122740531E-5));
#967=DIRECTION('',(-0.999999996584711,-3.56372645838113E-13,8.26473122740531E-5));
#968=DIRECTION('',(0.494012993575292,0.869454518943794,-4.08288462869256E-5));
#969=DIRECTION('',(-3.56372647055942E-13,1.,-8.62436282290527E-21));
#970=DIRECTION('',(-0.999999996584711,-3.56372645838113E-13,8.26473122740531E-5));
#971=DIRECTION('',(8.26473122740531E-5,0.,0.999999996584711));
#972=DIRECTION('',(-0.999999996584711,-3.56372645838113E-13,8.26473122740531E-5));
#973=DIRECTION('',(0.999999996584711,3.56372645838113E-13,-8.26473122740531E-5));
#974=DIRECTION('',(-8.26473122740531E-5,0.,-0.999999996584711));
#975=DIRECTION('',(-0.866032733843984,0.492064615658982,-0.0886550502063676));
#976=DIRECTION('',(-0.499987297133867,-0.852280914928917,0.153720345929546));
#977=DIRECTION('',(-3.56372644620997E-13,1.,2.94532413467045E-17));
#978=DIRECTION('',(-1.,-3.56372644620997E-13,0.));
#979=DIRECTION('',(-0.999999996584711,-3.56372645838113E-13,8.26473122740531E-5));
#980=DIRECTION('',(-0.101836960930456,-3.63212072039134E-14,0.994801102426233));
#981=DIRECTION('',(-8.26473122740531E-5,1.91485096680023E-28,-0.999999996584711));
#982=DIRECTION('',(-0.999999996584711,-3.56372645838113E-13,8.26473122740531E-5));
#983=DIRECTION('',(8.26473122740531E-5,0.,0.999999996584711));
#984=DIRECTION('',(-0.866032733843984,0.492064615658982,-0.0886550502063676));
#985=DIRECTION('',(-0.499987297133867,-0.852280914928917,0.153720345929546));
#986=DIRECTION('',(0.999999996584711,3.56372645838113E-13,-8.26473122740531E-5));
#987=DIRECTION('',(-3.56372644620997E-13,1.,2.94532413465131E-17));
#988=DIRECTION('',(8.13356358355708E-5,0.177453250362756,0.984129227957491));
#989=DIRECTION('',(-0.999999996584711,-3.56372645838113E-13,8.26473122740531E-5));
#990=DIRECTION('',(3.56372644620997E-13,-1.,-2.94532413465131E-17));
#991=DIRECTION('',(-1.46660345474921E-5,0.984129231318579,-0.177453249756689));
#992=DIRECTION('',(-0.999999996584711,-3.56372645838113E-13,8.26473122740531E-5));
#993=DIRECTION('',(3.56372644620997E-13,-1.,-2.94532413465131E-17));
#994=DIRECTION('',(5.12866182928703E-5,-0.784168524397939,0.620547921367272));
#995=DIRECTION('',(0.865999757517565,0.39208426219928,-0.310345535355617));
#996=DIRECTION('',(6.48094206902539E-5,0.620547923486617,0.784168521719781));
#997=DIRECTION('',(0.865999757517565,0.39208426219928,-0.310345535355617));
#998=DIRECTION('',(0.500044413806671,-0.679109862976598,0.537368940513544));
#999=DIRECTION('',(0.865999757517565,0.39208426219928,-0.310345535355617));
#1000=DIRECTION('',(0.500044413806671,-0.679109862976598,0.537368940513544));
#1001=DIRECTION('',(-0.866032733843984,0.492064615658982,-0.0886550502063676));
#1002=DIRECTION('',(-8.13356358355708E-5,-0.177453250362756,-0.984129227957491));
#1003=DIRECTION('',(-0.866032733843984,0.492064615658982,-0.0886550502063676));
#1004=DIRECTION('',(0.499987297133867,0.852280914928917,-0.153720345929546));
#1005=DIRECTION('',(-0.866032733843984,0.492064615658982,-0.0886550502063676));
#1006=DIRECTION('',(0.499987297133867,0.852280914928917,-0.153720345929546));
#1007=DIRECTION('',(0.999999996584711,3.56372645838113E-13,-8.26473122740531E-5));
#1008=DIRECTION('',(-8.26473122740531E-5,0.,-0.999999996584711));
#1009=DIRECTION('',(-0.999999996584711,-3.56372645838113E-13,8.26473122740531E-5));
#1010=DIRECTION('',(-8.26473122740531E-5,0.,-0.999999996584711));
#1011=DIRECTION('',(0.999999996584711,3.56372645838113E-13,-8.26473122740531E-5));
#1012=DIRECTION('',(-3.56372644620997E-13,1.,2.94532413465131E-17));
#1013=DIRECTION('',(0.999999996584711,3.56372645838113E-13,-8.26473122740531E-5));
#1014=DIRECTION('',(-8.26473122740531E-5,0.,-0.999999996584711));
#1015=DIRECTION('',(-0.999999996584711,-3.56372645838113E-13,8.26473122740531E-5));
#1016=DIRECTION('',(-8.26473122740531E-5,0.,-0.999999996584711));
#1017=DIRECTION('',(0.999999996584711,3.56372645838113E-13,-8.26473122740531E-5));
#1018=DIRECTION('',(-3.56372644620997E-13,1.,2.94532413465131E-17));
#1019=DIRECTION('',(0.999999996584711,3.56372645838113E-13,-8.26473122740531E-5));
#1020=DIRECTION('',(-3.56372644620997E-13,1.,2.94532413465131E-17));
#1021=DIRECTION('',(0.999999996584711,3.56372645838113E-13,-8.26473122740531E-5));
#1022=DIRECTION('',(-8.26473122740531E-5,0.,-0.999999996584711));
#1023=DIRECTION('',(0.999999996584711,3.56372645838113E-13,-8.26473122740531E-5));
#1024=DIRECTION('',(-8.26473122740531E-5,0.,-0.999999996584711));
#1025=DIRECTION('',(0.999999996584711,3.56372645838113E-13,-8.26473122740531E-5));
#1026=DIRECTION('',(-3.56372644620997E-13,1.,2.94532413465131E-17));
#1027=DIRECTION('',(0.999999996584711,3.56372645838113E-13,-8.26473122740531E-5));
#1028=DIRECTION('',(-8.26473122740531E-5,0.,-0.999999996584711));
#1029=DIRECTION('',(0.999999996584711,3.56372645838113E-13,-8.26473122740531E-5));
#1030=DIRECTION('',(-8.26473122740531E-5,0.,-0.999999996584711));
#1031=DIRECTION('',(-1.46660345474921E-5,0.984129231318579,-0.177453249756689));
#1032=DIRECTION('',(0.,0.177453249775774,0.984129231424419));
#1033=DIRECTION('',(1.46660345474921E-5,-0.984129231318579,0.177453249756689));
#1034=DIRECTION('',(0.,-0.177453249775774,-0.984129231424419));
#1035=DIRECTION('',(-5.12866182928703E-5,0.784168524397939,-0.620547921367272));
#1036=DIRECTION('',(0.,0.620547922183391,0.784168525429245));
#1037=DIRECTION('',(5.12866182928703E-5,-0.784168524397939,0.620547921367272));
#1038=DIRECTION('',(0.,-0.620547922183391,-0.784168525429245));
#1039=CARTESIAN_POINT('',(0.,0.,0.));
#1040=CARTESIAN_POINT('',(0.190831950781555,0.0503862956347977,-0.360185397611328));
#1041=CARTESIAN_POINT('',(0.180831950815708,0.0503862956347942,-0.360184571138206));
#1042=CARTESIAN_POINT('',(0.180831785521083,0.0503862956347942,-0.362184571131375));
#1043=CARTESIAN_POINT('',(0.188831950788386,0.050386295634797,-0.360185232316704));
#1044=CARTESIAN_POINT('',(0.188831785493761,0.050386295634797,-0.362185232309873));
#1045=CARTESIAN_POINT('',(0.190830370110223,0.0355964880721244,-0.379310899559059));
#1046=CARTESIAN_POINT('',(0.180830370144376,0.0355964880721208,-0.379310073085936));
#1047=CARTESIAN_POINT('',(0.180830204849751,0.0355964880721208,-0.381310073079105));
#1048=CARTESIAN_POINT('',(0.188830370117054,0.0355964880721236,-0.379310734264434));
#1049=CARTESIAN_POINT('',(0.188830204822429,0.0355964880721236,-0.381310734257603));
#1050=CARTESIAN_POINT('',(0.190834768510749,-0.0251616011462221,-0.326091982114808));
#1051=CARTESIAN_POINT('',(0.180834768544901,-0.0251616011462256,-0.326091155641686));
#1052=CARTESIAN_POINT('',(0.180834603250277,-0.0251616011462256,-0.328091155634855));
#1053=CARTESIAN_POINT('',(0.188834768517579,-0.0251616011462228,-0.326091816820184));
#1054=CARTESIAN_POINT('',(0.188834603222955,-0.0251616011462228,-0.328091816813353));
#1055=CARTESIAN_POINT('',(0.190832806157599,-0.0297178991758646,-0.349835684004074));
#1056=CARTESIAN_POINT('',(0.180832806191752,-0.0297178991758681,-0.349834857530952));
#1057=CARTESIAN_POINT('',(0.180832640897127,-0.0297178991758681,-0.351834857524121));
#1058=CARTESIAN_POINT('',(0.18883280616443,-0.0297178991758653,-0.34983551870945));
#1059=CARTESIAN_POINT('',(0.188832640869805,-0.0297178991758653,-0.351835518702619));
#1060=CARTESIAN_POINT('',(0.225837075996034,-0.0136536981964442,-0.29817376332889));
#1061=CARTESIAN_POINT('',(0.220842350656441,-0.0021457952466805,-0.234352238773089));
#1062=CARTESIAN_POINT('',(0.203247350716533,-0.00214579524668677,-0.234350784593629));
#1063=CARTESIAN_POINT('',(0.203237950716566,-0.00214579524668677,-0.234350783816745));
#1064=CARTESIAN_POINT('',(0.203236519616052,-0.0052680851868195,-0.251666537582657));
#1065=CARTESIAN_POINT('',(0.185641519676145,-0.00526808518682576,-0.251665083403197));
#1066=CARTESIAN_POINT('',(0.185637676133327,-0.0136536981964585,-0.298170440956525));
#1067=CARTESIAN_POINT('',(0.185635996648077,-0.0173178991758645,-0.31849155242433));
#1068=CARTESIAN_POINT('',(0.190835396630319,-0.0173178991758645,-0.318491982140765));
#1069=CARTESIAN_POINT('',(0.200835396596167,-0.017317899175861,-0.318492808613888));
#1070=CARTESIAN_POINT('',(0.200837076081416,-0.0136536981964531,-0.298171697146083));
#1071=CARTESIAN_POINT('',(0.200831801438086,-0.0251616011462184,-0.361992808465323));
#1072=CARTESIAN_POINT('',(0.225831801352703,-0.0251616011462096,-0.36199487464813));
#1073=CARTESIAN_POINT('',(0.225831801352703,-0.0251616011462096,-0.36199487464813));
#1074=CARTESIAN_POINT('',(0.225837075996034,-0.0136536981964442,-0.29817376332889));
#1075=CARTESIAN_POINT('',(0.225842350639365,-0.00214579524667872,-0.23435265200965));
#1076=CARTESIAN_POINT('',(0.225842350639365,-0.00214579524667872,-0.23435265200965));
#1077=CARTESIAN_POINT('',(0.225834190567472,0.0637093286161551,-0.333086314565564));
#1078=CARTESIAN_POINT('',(0.185634790704764,0.0637093286161408,-0.333082992193199));
#1079=CARTESIAN_POINT('',(0.185633452466427,0.0508957436050952,-0.349275150180907));
#1080=CARTESIAN_POINT('',(0.18563785329573,0.0930335293825533,-0.296026845044384));
#1081=CARTESIAN_POINT('',(0.203232853235638,0.0930335293825596,-0.296028299223843));
#1082=CARTESIAN_POINT('',(0.203233993557395,0.103952070096307,-0.282230854084183));
#1083=CARTESIAN_POINT('',(0.22083839349727,0.103952070096313,-0.282232309040528));
#1084=CARTESIAN_POINT('',(0.203243393557363,0.103952070096307,-0.282230854861068));
#1085=CARTESIAN_POINT('',(0.225838393480194,0.103952070096315,-0.28223272227709));
#1086=CARTESIAN_POINT('',(0.225838393480194,0.103952070096315,-0.28223272227709));
#1087=CARTESIAN_POINT('',(0.225834190567472,0.0637093286161551,-0.333086314565564));
#1088=CARTESIAN_POINT('',(0.22582998765475,0.0234665871359955,-0.383939906854039));
#1089=CARTESIAN_POINT('',(0.22582998765475,0.0234665871359955,-0.383939906854039));
#1090=CARTESIAN_POINT('',(0.200829987740132,0.0234665871359866,-0.383937840671232));
#1091=CARTESIAN_POINT('',(0.200832852414517,0.0508957436051023,-0.349276406370467));
#1092=CARTESIAN_POINT('',(0.200832852414517,0.0508957436051023,-0.349276406370467));
#1093=CARTESIAN_POINT('',(0.19083285244867,0.0508957436050988,-0.349275579897345));
#1094=CARTESIAN_POINT('',(0.18083690353407,0.0294019551313678,-0.300258625564961));
#1095=CARTESIAN_POINT('',(0.180835396664474,-0.0212397501610469,-0.318491155667642));
#1096=CARTESIAN_POINT('',(0.180835396664471,-0.0122372656158826,-0.318491155667642));
#1097=CARTESIAN_POINT('',(0.180835396664475,-0.0251616011462256,-0.318491155667642));
#1098=CARTESIAN_POINT('',(0.180837002819549,-0.00873305203986735,-0.299057310448621));
#1099=CARTESIAN_POINT('',(0.180831728176219,-0.0202409549896328,-0.362878421767861));
#1100=CARTESIAN_POINT('',(0.180831398190441,0.00190195271503571,-0.366871119887387));
#1101=CARTESIAN_POINT('',(0.180830244241529,0.0195457445139898,-0.380833448118151));
#1102=CARTESIAN_POINT('',(0.180834447154251,0.0597884859941495,-0.329979855829675));
#1103=CARTESIAN_POINT('',(0.180833167346463,0.0475343714394451,-0.345465027130155));
#1104=CARTESIAN_POINT('',(0.180832609432765,0.0534904595167552,-0.352215563589577));
#1105=CARTESIAN_POINT('',(0.180832366382707,0.0560851754284151,-0.355156373754932));
#1106=CARTESIAN_POINT('',(0.180831701677932,0.0469697436907356,-0.363199040326372));
#1107=CARTESIAN_POINT('',(0.180830948311996,0.0550124102896442,-0.37231447203292));
#1108=CARTESIAN_POINT('',(0.180830423729636,0.0478185478811058,-0.378661712446506));
#1109=CARTESIAN_POINT('',(0.180829899147276,0.0406246854725675,-0.385008952860094));
#1110=CARTESIAN_POINT('',(0.180830652513212,0.0325820188736591,-0.375893521153546));
#1111=CARTESIAN_POINT('',(0.180829987808438,0.0234665871359795,-0.383936187724986));
#1112=CARTESIAN_POINT('',(0.180831398190441,0.0019019527150357,-0.366871119887387));
#1113=CARTESIAN_POINT('',(0.180831801506391,-0.0251616011462256,-0.361991155519077));
#1114=CARTESIAN_POINT('',(0.18083280619175,-0.0251616011462255,-0.349834857530952));
#1115=CARTESIAN_POINT('',(0.180832806191754,-0.0373178991758682,-0.349834857530952));
#1116=CARTESIAN_POINT('',(0.180833599085438,-0.0373178991758682,-0.340241155593359));
#1117=CARTESIAN_POINT('',(0.18083439197912,-0.0373178991758682,-0.330647453655767));
#1118=CARTESIAN_POINT('',(0.180834391979115,-0.0251616011462256,-0.330647453655767));
#1119=CARTESIAN_POINT('',(0.220838521713817,0.101991648785318,-0.28068093923711));
#1120=CARTESIAN_POINT('',(0.220838649930362,0.100031227474323,-0.279129569433692));
#1121=CARTESIAN_POINT('',(0.203243649990454,0.100031227474317,-0.279128115254232));
#1122=CARTESIAN_POINT('',(0.203234249990487,0.100031227474317,-0.279128114477347));
#1123=CARTESIAN_POINT('',(0.203243521773909,0.101991648785312,-0.280679485057651));
#1124=CARTESIAN_POINT('',(0.20323412177394,0.101991648785312,-0.280679484280766));
#1125=CARTESIAN_POINT('',(0.220842313991355,0.000314527831615924,-0.23479587189748));
#1126=CARTESIAN_POINT('',(0.203247277386361,0.00277485090990606,-0.235238050842413));
#1127=CARTESIAN_POINT('',(0.203247277386361,0.00277485090990608,-0.235238050842413));
#1128=CARTESIAN_POINT('',(0.220842277326269,0.00277485090991234,-0.235239505021872));
#1129=CARTESIAN_POINT('',(0.203237877386393,0.00277485090990607,-0.235238050065528));
#1130=CARTESIAN_POINT('',(0.203237950716566,-0.0021457952466885,-0.234350783816744));
#1131=CARTESIAN_POINT('',(0.220837002682938,-0.0087330520398531,-0.299060616341112));
#1132=CARTESIAN_POINT('',(0.185637602803154,-0.00873305203986564,-0.299057707205308));
#1133=CARTESIAN_POINT('',(0.185635996648075,-0.0122372656158809,-0.31849155242433));
#1134=CARTESIAN_POINT('',(0.185641446345972,-0.000347439030232885,-0.252552349651981));
#1135=CARTESIAN_POINT('',(0.20323644628588,-0.000347439030226618,-0.25255380383144));
#1136=CARTESIAN_POINT('',(0.203248708486873,0.00589714085003881,-0.2179222970765));
#1137=CARTESIAN_POINT('',(0.220843708426781,0.00589714085004507,-0.21792375125596));
#1138=CARTESIAN_POINT('',(0.220837002682938,-0.0087330520398531,-0.299060616341112));
#1139=CARTESIAN_POINT('',(0.220831728039607,-0.0202409549896185,-0.362881727660351));
#1140=CARTESIAN_POINT('',(0.220831728039607,-0.0202409549896185,-0.362881727660351));
#1141=CARTESIAN_POINT('',(0.220835396527859,-0.0122372656158683,-0.318494461560133));
#1142=CARTESIAN_POINT('',(0.225831398036753,0.00190195271505173,-0.366874839016439));
#1143=CARTESIAN_POINT('',(0.190829987774285,0.0234665871359831,-0.383937014198109));
#1144=CARTESIAN_POINT('',(0.225831398036753,0.00190195271505173,-0.366874839016439));
#1145=CARTESIAN_POINT('',(0.190831801472238,-0.025161601146222,-0.3619919819922));
#1146=CARTESIAN_POINT('',(0.225841470677292,0.0569019586324371,-0.244999846995053));
#1147=CARTESIAN_POINT('',(0.203243393557363,0.103952070096307,-0.282230854861068));
#1148=CARTESIAN_POINT('',(0.204415635334357,0.103952070096307,-0.282230951743701));
#1149=CARTESIAN_POINT('',(0.206714100139611,0.104094253752832,-0.28205263495143));
#1150=CARTESIAN_POINT('',(0.210087608461268,0.10472770045733,-0.281237704095462));
#1151=CARTESIAN_POINT('',(0.213141979057591,0.10571053855991,-0.279912900204865));
#1152=CARTESIAN_POINT('',(0.21585382130197,0.106992933103465,-0.278059117353255));
#1153=CARTESIAN_POINT('',(0.218034995556694,0.108441890182428,-0.275764010249907));
#1154=CARTESIAN_POINT('',(0.220191565306666,0.110485221270927,-0.272147554036113));
#1155=CARTESIAN_POINT('',(0.220839488607815,0.111950447815984,-0.268981901820449));
#1156=CARTESIAN_POINT('',(0.220839669105558,0.112802089970359,-0.26679795006482));
#1157=CARTESIAN_POINT('',(0.220839669105558,0.112802089970359,-0.266797950064819));
#1158=CARTESIAN_POINT('',(0.220841470694368,0.0569019586324354,-0.244999433758491));
#1159=CARTESIAN_POINT('',(0.220843743070119,0.00357248236779018,-0.217504580491468));
#1160=CARTESIAN_POINT('',(0.220843743070119,0.00357248236779018,-0.217504580491468));
#1161=CARTESIAN_POINT('',(0.220843656995572,0.00303553699962273,-0.218546048681656));
#1162=CARTESIAN_POINT('',(0.220635008446048,0.00204178771037977,-0.220620901626103));
#1163=CARTESIAN_POINT('',(0.219657323499449,0.000756001180247635,-0.223758442433185));
#1164=CARTESIAN_POINT('',(0.218063662684577,-0.000254981310760706,-0.226670596176844));
#1165=CARTESIAN_POINT('',(0.215858160585126,-0.00102883424675602,-0.229310894790731));
#1166=CARTESIAN_POINT('',(0.213178614828439,-0.00156540187371578,-0.231476884274929));
#1167=CARTESIAN_POINT('',(0.209069257465788,-0.00202897426802768,-0.233655472618075));
#1168=CARTESIAN_POINT('',(0.205591717601395,-0.00214579524668598,-0.234350978349252));
#1169=CARTESIAN_POINT('',(0.203247350716533,-0.00214579524668681,-0.23435078459363));
#1170=CARTESIAN_POINT('',(0.225841470677292,0.0569019586324371,-0.244999846995053));
#1171=CARTESIAN_POINT('',(0.225836903380382,0.0294019551313838,-0.300262344694014));
#1172=CARTESIAN_POINT('',(0.22083444701764,0.0597884859941637,-0.329983161722167));
#1173=CARTESIAN_POINT('',(0.203233109668729,0.08911268676057,-0.292925559617007));
#1174=CARTESIAN_POINT('',(0.185638109728821,0.0891126867605638,-0.292924105437547));
#1175=CARTESIAN_POINT('',(0.185635047137856,0.0597884859941512,-0.329980252586363));
#1176=CARTESIAN_POINT('',(0.185633767330068,0.0475343714394468,-0.345465423886842));
#1177=CARTESIAN_POINT('',(0.220833167209852,0.0475343714394594,-0.345468333022647));
#1178=CARTESIAN_POINT('',(0.220830244104918,0.0195457445140041,-0.380836754010641));
#1179=CARTESIAN_POINT('',(0.220830244104918,0.0195457445140041,-0.380836754010641));
#1180=CARTESIAN_POINT('',(0.22083444701764,0.0597884859941637,-0.329983161722167));
#1181=CARTESIAN_POINT('',(0.220839790252119,0.11094976818807,-0.265332124294032));
#1182=CARTESIAN_POINT('',(0.203244790312211,0.110949768188064,-0.265330670114573));
#1183=CARTESIAN_POINT('',(0.22083139805383,0.00190195271504996,-0.366874425779877));
#1184=CARTESIAN_POINT('',(0.22083139805383,0.00190195271504996,-0.366874425779877));
#1185=CARTESIAN_POINT('',(0.220837984011197,0.0481519556737431,-0.28718692983322));
#1186=CARTESIAN_POINT('',(0.220843781756953,0.000976494693451955,-0.217036485007177));
#1187=CARTESIAN_POINT('',(0.220841620267066,0.0829689777147325,-0.243189662787083));
#1188=CARTESIAN_POINT('',(0.190832609398612,0.0534904595167588,-0.3522163900627));
#1189=CARTESIAN_POINT('',(0.185634481507187,0.0399100707078956,-0.336824161467974));
#1190=CARTESIAN_POINT('',(0.189888969465706,0.0636375586461615,-0.36371687455823));
#1191=CARTESIAN_POINT('',(0.196375674668472,0.0560851754284206,-0.35515765836759));
#1192=CARTESIAN_POINT('',(0.190832366348554,0.0560851754284186,-0.355157200228054));
#1193=CARTESIAN_POINT('',(0.19083065247906,0.0325820188736627,-0.375894347626669));
#1194=CARTESIAN_POINT('',(0.190829899113124,0.0406246854725711,-0.385009779333217));
#1195=CARTESIAN_POINT('',(0.192677399900887,0.0406246854725717,-0.385009932024191));
#1196=CARTESIAN_POINT('',(0.199585207114467,0.0325820188736657,-0.375895071167082));
#1197=CARTESIAN_POINT('',(0.190830423695484,0.0478185478811094,-0.378662538919629));
#1198=CARTESIAN_POINT('',(0.190830948277843,0.0550124102896477,-0.372315298506042));
#1199=CARTESIAN_POINT('',(0.190830948277843,0.0550124102896477,-0.372315298506042));
#1200=CARTESIAN_POINT('',(0.190830423695484,0.0478185478811094,-0.378662538919629));
#1201=CARTESIAN_POINT('',(0.19083088514002,0.0541465694963524,-0.373079241345484));
#1202=CARTESIAN_POINT('',(0.19071543797229,0.0549919801294089,-0.372333314761456));
#1203=CARTESIAN_POINT('',(0.190831701643779,0.0469697436907392,-0.363199866799495));
#1204=CARTESIAN_POINT('',(0.197620455294137,0.0469697436907416,-0.36320042787174));
#1205=CARTESIAN_POINT('',(0.190831298495543,0.0581044340843839,-0.368077801963131));
#1206=CARTESIAN_POINT('',(0.190831701643779,0.0469697436907392,-0.363199866799495));
#1207=CARTESIAN_POINT('',(0.190834424080559,0.00190195252389868,-0.330259451935626));
#1208=CARTESIAN_POINT('',(0.190829099463999,0.0370487843955185,-0.394685219481502));
#1209=CARTESIAN_POINT('',(0.190835396630321,-0.0212397501610433,-0.318491982140765));
#1210=CARTESIAN_POINT('',(0.190835396630322,-0.0251616011462221,-0.318491982140765));
#1211=CARTESIAN_POINT('',(0.196378704950241,-0.02516160114622,-0.3184924402803));
#1212=CARTESIAN_POINT('',(0.196710387598728,-0.0245778452909425,-0.31849246769298));
#1213=CARTESIAN_POINT('',(0.185635996648071,-0.000713317579424752,-0.31849155242433));
#1214=CARTESIAN_POINT('',(0.190834391944963,-0.0251616011462221,-0.33064828012889));
#1215=CARTESIAN_POINT('',(0.190834391944967,-0.0373178991758646,-0.33064828012889));
#1216=CARTESIAN_POINT('',(0.190834391944967,-0.0373178991758646,-0.33064828012889));
#1217=CARTESIAN_POINT('',(0.190834391944963,-0.0251616011462221,-0.33064828012889));
#1218=CARTESIAN_POINT('',(0.190834815273647,-0.0361860995048646,-0.325526169475402));
#1219=CARTESIAN_POINT('',(0.197623145595321,-0.0251616011462196,-0.330648841201135));
#1220=CARTESIAN_POINT('',(0.190833599051284,-0.0373178991758646,-0.340241982066482));
#1221=CARTESIAN_POINT('',(0.190832806157602,-0.0373178991758646,-0.349835684004074));
#1222=CARTESIAN_POINT('',(0.192680306945365,-0.0373178991758639,-0.34983583669505));
#1223=CARTESIAN_POINT('',(0.191689225539528,-0.0373178991758643,-0.340154392294978));
#1224=CARTESIAN_POINT('',(0.190834296513659,-0.0373178991758646,-0.331802961442564));
#1225=CARTESIAN_POINT('',(0.190833599051284,-0.0373178991758646,-0.340241982066482));
#1226=CARTESIAN_POINT('',(0.190832806157598,-0.0251616011462219,-0.349835684004074));
#1227=CARTESIAN_POINT('',(0.199587360793005,-0.0251616011462188,-0.349836407544488));
#1228=CARTESIAN_POINT('',(0.190834424080559,0.00190195252389868,-0.330259451935626));
#1229=CARTESIAN_POINT('',(0.190834986134358,-0.0358133257709579,-0.323458822012324));
#1230=CARTESIAN_POINT('',(0.185638377513136,0.0397920297282789,-0.289684020688878));
#1231=CARTESIAN_POINT('',(0.185641446345972,-0.000347439030232673,-0.252552349651981));
#1232=CARTESIAN_POINT('',(0.185638377513136,0.0397920297282789,-0.289684020688878));
#1233=CARTESIAN_POINT('',(0.18564019639334,0.0572077437024378,-0.267676285000911));
#1234=CARTESIAN_POINT('',(0.190830960166168,0.05486494221762,-0.372171454446908));
#1235=CARTESIAN_POINT('',(0.197153899480992,0.0503862956348,-0.360185920103399));
#1236=CARTESIAN_POINT('',(0.200040907250172,0.0464654530128113,-0.357083419078802));
#1237=CARTESIAN_POINT('',(0.196996094185544,0.0355964880721266,-0.379311409139583));
#1238=CARTESIAN_POINT('',(0.199883101954724,0.0316756454501379,-0.376208908114987));
#1239=CARTESIAN_POINT('',(0.200837076081416,-0.0136536981964531,-0.298171697146083));
#1240=CARTESIAN_POINT('',(0.19699853023292,-0.0297178991758624,-0.349836193584599));
#1241=CARTESIAN_POINT('',(0.199885208238836,-0.0247972530192685,-0.350723698415622));
#1242=CARTESIAN_POINT('',(0.197156717210185,-0.0251616011462198,-0.326092504606878));
#1243=CARTESIAN_POINT('',(0.200043395216102,-0.0202409549896259,-0.326980009437902));
#1244=CARTESIAN_POINT('',(0.188834768517579,-0.0251616011462228,-0.326091816820184));
#1245=CARTESIAN_POINT('',(0.188834768517579,-0.0251616011462228,-0.326091816820184));
#1246=CARTESIAN_POINT('',(0.188834355281018,-0.0251616011462228,-0.331091816803108));
#1247=CARTESIAN_POINT('',(0.188837777502209,0.04109202972828,-0.289684285110689));
#1248=CARTESIAN_POINT('',(0.18883280616443,-0.0297178991758653,-0.34983551870945));
#1249=CARTESIAN_POINT('',(0.18883280616443,-0.0297178991758653,-0.34983551870945));
#1250=CARTESIAN_POINT('',(0.188832392927869,-0.0297178991758653,-0.354835518692374));
#1251=CARTESIAN_POINT('',(0.188837777502209,0.04109202972828,-0.289684285110689));
#1252=CARTESIAN_POINT('',(0.188837777502209,0.04109202972828,-0.289684285110689));
#1253=CARTESIAN_POINT('',(0.188830370117054,0.0355964880721236,-0.379310734264434));
#1254=CARTESIAN_POINT('',(0.188829956880493,0.0355964880721236,-0.384310734247358));
#1255=CARTESIAN_POINT('',(0.188830370117054,0.0355964880721236,-0.379310734264434));
#1256=CARTESIAN_POINT('',(0.188837777502209,0.04109202972828,-0.289684285110689));
#1257=CARTESIAN_POINT('',(0.188831950788386,0.050386295634797,-0.360185232316704));
#1258=CARTESIAN_POINT('',(0.188831537551825,0.050386295634797,-0.365185232299627));
#1259=CARTESIAN_POINT('',(0.188831950788386,0.050386295634797,-0.360185232316704));
#1260=CARTESIAN_POINT('',(0.203247918351701,0.0589172750585319,-0.227482621898097));
#1261=CARTESIAN_POINT('',(0.203235770305464,0.0450126127527468,-0.260732900988462));
#1262=CARTESIAN_POINT('',(0.203244662095665,0.112910189499059,-0.266882039917991));
#1263=CARTESIAN_POINT('',(0.203232981452184,0.0910731080715648,-0.294476929420425));
#1264=MECHANICAL_DESIGN_GEOMETRIC_PRESENTATION_REPRESENTATION('',(#729),
#1265);
#1265=(
GEOMETRIC_REPRESENTATION_CONTEXT(3)
GLOBAL_UNCERTAINTY_ASSIGNED_CONTEXT((#1266))
GLOBAL_UNIT_ASSIGNED_CONTEXT((#1269,#1268,#1267))
REPRESENTATION_CONTEXT('Part 7','TOP_LEVEL_ASSEMBLY_PART')
);
#1266=UNCERTAINTY_MEASURE_WITH_UNIT(LENGTH_MEASURE(2.E-5),#1269,
'DISTANCE_ACCURACY_VALUE','Maximum Tolerance applied to model');
#1267=(
NAMED_UNIT(*)
SI_UNIT($,.STERADIAN.)
SOLID_ANGLE_UNIT()
);
#1268=(
NAMED_UNIT(*)
PLANE_ANGLE_UNIT()
SI_UNIT($,.RADIAN.)
);
#1269=(
LENGTH_UNIT()
NAMED_UNIT(*)
SI_UNIT($,.METRE.)
);
#1270=PRODUCT_DEFINITION_SHAPE('','',#1271);
#1271=PRODUCT_DEFINITION('','',#1273,#1272);
#1272=PRODUCT_DEFINITION_CONTEXT('',#1279,'design');
#1273=PRODUCT_DEFINITION_FORMATION_WITH_SPECIFIED_SOURCE('','',#1275,
 .NOT_KNOWN.);
#1274=PRODUCT_RELATED_PRODUCT_CATEGORY('','',(#1275));
#1275=PRODUCT('Part 7','Part 7','Part 7',(#1277));
#1276=PRODUCT_CATEGORY('','');
#1277=PRODUCT_CONTEXT('',#1279,'mechanical');
#1278=APPLICATION_PROTOCOL_DEFINITION('international standard',
'ap242_managed_model_based_3d_engineering',2020,#1279);
#1279=APPLICATION_CONTEXT('managed model based 3d engineering');
ENDSEC;
END-ISO-10303-21;
